<svg width="16" height="16" viewBox="0 0 16 16" fill="none" xmlns="http://www.w3.org/2000/svg">
<path fill-rule="evenodd" clip-rule="evenodd" d="M2.40005 5.89144C2.40005 7.82735 3.30514 9.39048 4.47339 10.5701C5.29357 11.3983 6.682 12.6137 7.89907 12.7841C7.95496 12.7919 8.04514 12.7919 8.10103 12.7841C9.3181 12.6138 10.7065 11.3982 11.5267 10.5701C12.695 9.39048 13.6 7.82735 13.6 5.89144C13.6 3.28435 10.1567 2.24707 8.6384 4.26188C8.48721 4.46251 8.25089 4.58044 8.00005 4.58044C7.74921 4.58044 7.51289 4.46251 7.3617 4.26188C5.84352 2.24724 2.40005 3.28374 2.40005 5.89144ZM0.800049 5.89144C0.800049 2.20765 5.29388 0.287434 8.00046 2.61488C10.7084 0.290749 15.2 2.20552 15.2 5.89144C15.2 9.69533 12.1585 13.1138 8.65466 14.2949C8.24759 14.435 7.75249 14.435 7.34542 14.2949C3.84155 13.1137 0.800049 9.69533 0.800049 5.89144Z" fill="white"/>
</svg>
