<svg width="12" height="12" viewBox="0 0 12 12" fill="none" xmlns="http://www.w3.org/2000/svg">
<path d="M6.82922 1.89316L7.67392 3.59653C7.78911 3.83365 8.09628 4.06109 8.35545 4.10464L9.88648 4.36111C10.8656 4.52564 11.0959 5.24184 10.3904 5.94835L9.20015 7.14845C8.99858 7.3517 8.88819 7.74367 8.95058 8.02434L9.29134 9.50995C9.56011 10.6859 8.94098 11.1407 7.9091 10.5262L6.47406 9.66964C6.21488 9.51479 5.78773 9.51479 5.52376 9.66964L4.08872 10.5262C3.06163 11.1407 2.4377 10.681 2.70647 9.50995L3.04723 8.02434C3.10963 7.74367 2.99924 7.3517 2.79766 7.14845L1.60739 5.94835C0.906671 5.24184 1.13225 4.52564 2.11134 4.36111L3.64237 4.10464C3.89674 4.06109 4.20391 3.83365 4.31909 3.59653L5.1638 1.89316C5.62455 0.968883 6.37327 0.968883 6.82922 1.89316Z" fill="#F79009"/>
</svg>
